<svg width="493" height="493" viewBox="0 0 493 493" fill="none" xmlns="http://www.w3.org/2000/svg">
<circle cx="246.533" cy="246.635" r="246.365" fill="#7B0B05"/>
<path d="M139.878 242.852C141.848 240.296 145.496 239.711 148.049 241.683C149.289 242.633 150.092 244.02 150.311 245.554L153.521 268.266C153.594 268.558 153.667 268.85 153.813 269.142C147.83 261.255 143.088 252.492 139.513 243.29L139.878 242.852ZM159.357 273.305C159.649 273.305 159.941 273.305 160.16 273.232L194.813 268.266C198.023 267.828 200.212 264.834 199.774 261.62L196.564 238.908C196.126 235.695 198.315 232.774 201.525 232.335C203.057 232.116 204.589 232.482 205.829 233.431L224.214 247.234C226.767 249.205 230.415 248.621 232.385 246.065L253.396 218.022C255.366 215.466 254.782 211.814 252.229 209.842L233.917 196.04C231.364 194.068 230.78 190.416 232.75 187.86C233.698 186.619 235.084 185.815 236.616 185.596L259.305 182.383C262.515 181.945 264.704 178.951 264.266 175.81L259.305 141.121C258.867 137.908 255.876 135.717 252.739 136.155L230.05 139.369C227.716 139.734 225.381 138.565 224.214 136.593C222.974 134.549 223.12 131.993 224.579 130.094L238.148 111.69C240.118 109.134 239.534 105.483 236.981 103.511L233.698 101.028C239.024 100.736 244.422 100.882 249.748 101.466C307.382 108.039 348.821 160.182 342.182 217.876C338.607 249.278 321.098 277.468 294.469 294.484C284.766 300.545 278.784 311.135 278.638 322.527V346.189C278.638 355.902 270.832 363.716 261.129 363.716H214.438C204.735 363.716 196.929 355.902 196.929 346.189V323.038C196.783 311.354 190.655 300.472 180.733 294.265C171.541 288.276 163.297 280.9 156.366 272.429C157.314 273.013 158.263 273.305 159.357 273.305ZM231.947 346.189H243.62V328.662H231.947V346.189ZM243.62 316.977C243.62 301.495 253.104 287.692 267.549 282.142C309.571 265.71 330.29 218.241 313.875 176.176C307.528 159.89 296.074 146.087 281.338 136.739L275.136 146.598C307.893 167.193 317.742 210.5 297.096 243.29C289.144 255.997 277.252 265.783 263.318 271.26C244.422 278.49 231.947 296.675 231.947 316.977H243.62ZM261.129 392.928V398.77C261.129 405.197 255.876 410.455 249.456 410.455H226.111C219.691 410.455 214.438 405.197 214.438 398.77V392.928H261.129ZM297.606 299.45C301.035 297.186 304.391 294.776 307.601 292.147C316.429 309.309 337.44 316.101 354.584 307.264C366.257 301.276 373.552 289.226 373.552 276.08C373.552 258.407 360.348 243.509 342.911 241.318C345.027 234.891 346.632 228.246 347.508 221.527L348.529 226.42C349.842 232.701 356.043 236.79 362.39 235.476C363.922 235.184 365.309 234.526 366.622 233.65L378.732 225.325L389.384 235.914L380.994 248.11C377.346 253.441 378.659 260.671 383.985 264.396C385.225 265.272 386.684 265.856 388.216 266.221L402.734 269.289V283.164L388.216 286.231C381.942 287.546 377.857 293.754 379.17 300.107C379.462 301.641 380.118 303.028 380.994 304.343L389.311 316.247L378.659 326.836L366.549 318.511C361.223 314.859 354.001 316.174 350.28 321.505C349.404 322.746 348.821 324.207 348.456 325.741L345.392 340.347H331.53L328.466 325.814C327.153 319.533 320.952 315.443 314.605 316.758C313.073 317.05 311.687 317.707 310.374 318.584L298.263 326.909L285.715 314.348C287.976 308.213 292.135 302.955 297.606 299.45ZM261.129 369.558H214.438V381.243H261.129V369.558ZM92.0198 170.844C101.577 169.457 108.216 160.62 106.903 150.98C106.246 146.379 103.766 142.217 100.045 139.442L86.4023 129.217L100.41 110.522L114.052 120.819C121.785 126.661 132.729 125.055 138.565 117.314C141.337 113.589 142.577 108.915 141.921 104.314L139.513 87.3713L162.64 84.085L165.048 101.028C166.434 110.595 175.261 117.24 184.891 115.926C189.487 115.269 193.646 112.786 196.418 109.061L206.705 95.3316L225.381 109.353L215.095 123.01C209.258 130.751 210.863 141.705 218.596 147.548C222.317 150.323 226.986 151.564 231.582 150.907L248.508 148.497L251.791 171.648L234.865 174.058C225.308 175.445 218.669 184.282 219.983 193.922C220.639 198.523 223.12 202.685 226.84 205.46L240.483 215.758L226.476 234.453L212.833 224.156C205.1 218.314 194.157 219.92 188.32 227.662C185.548 231.386 184.308 236.06 184.964 240.661L187.372 257.604L164.245 260.89L161.838 243.947C160.451 234.38 151.624 227.735 141.994 229.049C137.398 229.706 133.239 232.189 130.467 235.914L120.18 249.57L101.504 235.549L111.791 221.819C117.627 214.078 116.022 203.124 108.289 197.281C104.568 194.506 99.8989 193.265 95.3028 193.922L78.3772 196.332L75.0943 173.181L92.0198 170.844ZM163.443 207.505C182.776 207.505 198.461 191.804 198.461 172.451C198.461 153.098 182.776 137.397 163.443 137.397C144.11 137.397 128.424 153.098 128.424 172.451C128.424 191.804 144.11 207.505 163.443 207.505Z" fill="white"/>
</svg>
